<?xml version="1.0" standalone="no"?><!DOCTYPE svg PUBLIC "-//W3C//DTD SVG 1.1//EN" "http://www.w3.org/Graphics/SVG/1.1/DTD/svg11.dtd"><svg t="1639231544714" class="icon" viewBox="0 0 1024 1024" version="1.1" xmlns="http://www.w3.org/2000/svg" p-id="2296" xmlns:xlink="http://www.w3.org/1999/xlink" width="200" height="200"><defs><style type="text/css"></style></defs><path d="M908.702808 1023.749181h-746.483778c-38.390594 4.265622-72.515567-46.921837-72.515567-72.515567v-482.015239c0-51.187459 55.453081-85.312432 85.312431-85.312432h42.656216v-127.968648c0-145.031134 153.562377-255.937295 298.593512-255.937295s298.593511 110.906161 298.593511 255.937295v127.968648h42.656216c34.124973 0 85.312432 29.859351 85.312432 85.312432v482.015239c-4.265622 25.59373 4.265622 72.515567-34.124973 72.515567z m-183.421729-767.811886c0-98.109297-115.171783-170.624864-213.281079-170.624863s-213.281079 72.515567-213.281079 170.624863v127.968648h426.562158v-127.968648z m127.968648 213.28108h-682.499454v469.218375h682.499454l12.796865 12.796864-12.796865-482.015239z m-298.593511 243.14043v98.109297c0 25.59373-17.062486 42.656216-42.656216 42.656216s-42.656216-21.328108-42.656216-42.656216v-98.109297c-25.59373-12.796865-42.656216-42.656216-42.656216-72.515567 0-46.921837 38.390594-85.312432 85.312432-85.312431s85.312432 38.390594 85.312432 85.312431c0 29.859351-17.062486 59.718702-42.656216 72.515567z" p-id="2297"></path></svg>