<?xml version="1.0" standalone="no"?><!DOCTYPE svg PUBLIC "-//W3C//DTD SVG 1.1//EN" "http://www.w3.org/Graphics/SVG/1.1/DTD/svg11.dtd"><svg t="1638962309644" class="icon" viewBox="0 0 1024 1024" version="1.1" xmlns="http://www.w3.org/2000/svg" p-id="1484" xmlns:xlink="http://www.w3.org/1999/xlink" width="200" height="200"><defs><style type="text/css"></style></defs><path d="M936.07924064 843.92205756l-182.23171789-182.23171784c41.91329511-55.97117051 64.56209435-123.91756816 64.56209433-194.72760714 0-179.62840764-146.30603635-325.93444399-325.934444-325.93444401s-325.93444399 146.30603635-325.934444 325.93444401 146.30603635 325.93444399 325.934444 325.934444c77.05798358 0 149.43000865-26.29343356 207.48382738-74.45467334l180.66973171 180.66973176 55.45050847-55.19017744zM492.47517308 728.07475119c-143.96305712 0-260.85168762-117.14896149-260.85168761-260.85168757s117.14896149-260.85168762 260.85168761-260.85168763c143.96305712 0 260.85168762 117.14896149 260.85168759 260.85168763 0 67.42573564-25.51244051 131.20683689-71.85136302 179.88873864-49.72322588 52.06620511-116.88863049 80.96294896-189.00032457 80.96294893z" fill="" p-id="1485"></path></svg>