<svg t="1637586880506" class="icon" viewBox="0 0 1153 1024" version="1.1" xmlns="http://www.w3.org/2000/svg" p-id="1998" width="200" height="200"><path d="M822.46 46.098H355.402c-128.928 0-233.53 104.601-233.53 233.529v467.057c0 128.928 104.602 233.53 233.53 233.53H822.46c128.927 0 233.529-104.602 233.529-233.53V279.627c0-128.928-104.724-233.53-233.53-233.53z" fill="#1195db" p-id="1999" data-spm-anchor-id="a313x.7781069.0.i0" class="selected"></path><path d="M889.6 592.58c-1.825 25.177-7.42 50.476-15.934 74.68-22.38 58.869-62.64 109.345-115.792 142.915-39.286 24.326-82.221 40.138-127.954 44.881-30.772 4.622-62.64 4.622-94.385 0-63.49-11.19-123.332-42.935-168.092-89.64-79.424-81.25-112.994-197.04-87.816-308.21 23.352-105.575 96.209-192.418 195.215-233.53 13.988-5.594 29.921-4.621 42.935 1.825 11.19 8.393 17.758 22.38 15.934 36.368s-11.19 27.123-24.326 31.745c-84.898 32.718-145.59 110.196-157.754 200.81-5.595 42.084-0.973 84.047 13.988 123.333 21.528 57.896 62.639 105.575 115.791 134.522 32.719 16.785 69.086 26.15 105.575 25.178 29.92 0 59.841-5.595 88.79-15.934 48.53-17.758 89.64-52.3 113.966-99.006 6.568-11.19 11.19-22.38 14.96-34.543 10.218-35.516 10.218-72.856 0-108.372-9.365-28.948-26.15-56.071-49.503-75.654-10.216-9.365-20.555-16.785-32.718-23.353-10.217-5.595-21.528-10.217-32.718-12.163 7.42 30.773 15.933 62.64 24.326 93.412l3.77 22.38c1.825 65.437-42.935 122.36-106.547 134.522-31.746 6.568-65.437 0-92.439-17.758-25.177-16.785-44.881-42.084-55.098-71.883-5.595-16.785-8.393-33.57-9.366-51.328-1.824-38.313 8.393-75.653 28.948-107.399 26.15-36.488 64.464-63.49 107.4-74.68l-9.366-36.49c-7.42-26.15-5.595-53.273 5.595-77.477 6.568-13.988 15.933-25.177 27.974-35.516 12.163-11.19 26.15-20.555 41.111-25.177 19.583-5.595 40.138-5.595 59.842-0.973 22.38 5.595 42.935 15.933 60.693 29.92 6.568 4.622 12.163 11.19 15.934 18.731 4.622 12.163 3.77 25.178-3.77 36.49-11.19 17.757-34.544 23.352-53.275 12.162-4.621-2.797-7.419-6.568-11.19-9.365-11.19-8.393-25.177-12.163-38.313-13.136-9.365 0.973-18.73 5.595-24.326 13.136-6.568 6.568-9.365 15.933-7.42 25.177l13.988 54.125c34.543 0.973 68.235 11.19 97.182 28.948 28.948 17.758 54.126 40.138 74.681 67.261 17.758 23.353 30.772 49.504 38.313 77.479 10.339 30.772 13.136 60.693 11.19 91.587z" fill="#FFFFFF" p-id="2000"></path><path d="M566.43 443.097c-11.19 12.163-18.732 27.975-21.53 44.881-2.797 14.96-2.797 30.772 0 45.733 2.798 16.785 11.19 32.718 24.327 42.935 11.19 8.393 24.326 10.217 37.34 7.42 23.353-4.622 40.138-26.15 42.084-51.328-0.973-6.568-1.825-12.163-3.77-18.731l-26.151-103.75c-20.555 5.716-38.313 16.906-52.3 32.84z m0 0" fill="#1195db" p-id="2001" data-spm-anchor-id="a313x.7781069.0.i5" class="selected"></path></svg>