<?xml version="1.0" standalone="no"?><!DOCTYPE svg PUBLIC "-//W3C//DTD SVG 1.1//EN" "http://www.w3.org/Graphics/SVG/1.1/DTD/svg11.dtd"><svg t="1639704598006" class="icon" viewBox="0 0 1024 1024" version="1.1" xmlns="http://www.w3.org/2000/svg" p-id="3547" xmlns:xlink="http://www.w3.org/1999/xlink" width="200" height="200"><defs><style type="text/css"></style></defs><path d="M895.999 330.743l-0.002-0.004c5.79-7.081 9.267-16.128 9.267-25.988 0-22.689-18.394-41.084-41.082-41.088l-0.083-0.177-703.881 0.182c-22.618 0.086-40.928 18.445-40.928 41.083 0 10.762 4.142 20.553 10.912 27.878l350.235 411.693c7.507 9.838 19.348 16.192 32.678 16.192 12.943 0 24.481-5.991 32.013-15.344l0.011 0 350.565-414.081c0.075-0.09 0.151-0.177 0.226-0.267l0.067-0.079L895.999 330.743z" p-id="3548"></path></svg>