<?xml version="1.0" standalone="no"?><!DOCTYPE svg PUBLIC "-//W3C//DTD SVG 1.1//EN" "http://www.w3.org/Graphics/SVG/1.1/DTD/svg11.dtd"><svg t="1639381471058" class="icon" viewBox="0 0 1024 1024" version="1.1" xmlns="http://www.w3.org/2000/svg" p-id="2291" xmlns:xlink="http://www.w3.org/1999/xlink" width="200" height="200"><defs><style type="text/css"></style></defs><path d="M1008.583267 1008.625931a51.879748 51.879748 0 0 1-73.766517 0l-151.458147-151.500811a52.135734 52.135734 0 1 1 73.723853-73.723853l151.500811 151.458147a51.922413 51.922413 0 0 1 0 73.766517z m-562.016386-115.49217c-123.299731 0-234.909453-49.959856-315.715575-130.765978l10.836724 21.076148C54.140955 697.603426 0 569.909276 0 446.566881 0 199.924754 199.924754 0 446.566881 0c246.642126 0 446.609545 199.924754 446.609544 446.566881 0 123.342395-50.002521 234.994782-130.851306 315.800902a445.15896 445.15896 0 0 1-315.758238 130.765978zM447.974801 85.328534a362.646268 362.646268 0 1 0 0.042665 725.335199A362.646268 362.646268 0 0 0 447.974801 85.328534z" p-id="2292"></path></svg>