<?xml version="1.0" standalone="no"?><!DOCTYPE svg PUBLIC "-//W3C//DTD SVG 1.1//EN" "http://www.w3.org/Graphics/SVG/1.1/DTD/svg11.dtd"><svg t="1639383455350" class="icon" viewBox="0 0 1024 1024" version="1.1" xmlns="http://www.w3.org/2000/svg" p-id="5248" xmlns:xlink="http://www.w3.org/1999/xlink" width="200" height="200"><defs><style type="text/css"></style></defs><path d="M724.48 128c15.168 0 27.456 12.224 27.456 27.392v646.72l96.128-96.192a27.52 27.52 0 0 1 38.848 38.848l-143.04 142.912-0.96 0.96-0.512 0.448c-0.128 0.128-0.32 0.32-0.512 0.384-0.128 0.192-0.384 0.384-0.64 0.512l-0.384 0.384c-0.256 0.128-0.512 0.32-0.64 0.512-0.128 0.064-0.32 0.128-0.384 0.256l-0.768 0.512-0.32 0.256-0.768 0.384-0.448 0.256-0.64 0.384-0.576 0.256a2.56 2.56 0 0 0-0.64 0.32l-0.64 0.256-0.64 0.256-0.64 0.256-0.512 0.192-0.768 0.256c-0.192 0.064-0.32 0.064-0.448 0.192a10.816 10.816 0 0 1-0.832 0.256l-0.448 0.064a3.072 3.072 0 0 1-0.832 0.192l-0.448 0.064c-0.256 0.064-0.64 0.064-0.832 0.192l-0.512 0.064-0.768 0.064c-0.256 0-0.448 0-0.704 0.128l-0.64 0.064h-2.688l-0.64-0.064c-0.256 0-0.384 0-0.64-0.128l-0.768-0.064-0.512-0.064a3.072 3.072 0 0 1-0.896-0.192l-0.448-0.064c-0.256-0.128-0.576-0.128-0.832-0.192l-0.448-0.064-0.832-0.256-0.448-0.192-0.768-0.256-0.512-0.192-0.64-0.256-0.64-0.256-0.64-0.256-0.64-0.256-0.512-0.256-0.64-0.32-0.448-0.256-0.768-0.448-0.384-0.256-0.768-0.512-0.32-0.256a4.736 4.736 0 0 1-0.64-0.512c-0.256-0.064-0.32-0.256-0.512-0.32l-0.576-0.512c-0.192-0.192-0.32-0.384-0.512-0.448l-0.512-0.448-1.92-1.92-0.384-0.448a2.24 2.24 0 0 1-0.448-0.512l-0.512-0.64-0.32-0.384a4.736 4.736 0 0 0-0.512-0.704l-0.256-0.32-0.512-0.832c-0.128 0-0.192-0.256-0.256-0.32l-0.448-0.768-0.256-0.448-0.32-0.64-0.256-0.512-0.256-0.704-0.256-0.64c-0.128-0.128-0.192-0.384-0.256-0.576l-0.256-0.64-0.192-0.576-0.256-0.768-0.192-0.384-0.256-0.896-0.064-0.384a3.072 3.072 0 0 1-0.192-0.896l-0.064-0.384c-0.128-0.256-0.128-0.64-0.192-0.896l-0.064-0.512-0.128-0.768v-0.64c0-0.192 0-0.448-0.128-0.64V155.712A27.2 27.2 0 0 1 724.48 128zM156.48 822.464h399.36a27.392 27.392 0 1 0 0-54.848h-399.36a27.392 27.392 0 1 0 0 54.848z m0-282.88h399.36a27.392 27.392 0 1 0 0-54.848h-399.36a27.392 27.392 0 1 0 0 54.784z m0-282.944h399.36a27.392 27.392 0 1 0 0-54.848h-399.36a27.392 27.392 0 1 0 0 54.848z" fill="#333333" p-id="5249"></path></svg>