<?xml version="1.0" standalone="no"?><!DOCTYPE svg PUBLIC "-//W3C//DTD SVG 1.1//EN" "http://www.w3.org/Graphics/SVG/1.1/DTD/svg11.dtd"><svg t="1639383413664" class="icon" viewBox="0 0 1024 1024" version="1.1" xmlns="http://www.w3.org/2000/svg" p-id="3763" xmlns:xlink="http://www.w3.org/1999/xlink" width="200" height="200"><defs><style type="text/css"></style></defs><path d="M759.4 960c17.7 0 32-14.3 32-32V173.3l112.2 112.2c12.5 12.5 32.8 12.5 45.3 0s12.5-32.8 0-45.3L782 73.4c-0.4-0.4-0.8-0.7-1.1-1.1-0.2-0.2-0.4-0.3-0.6-0.5-0.2-0.2-0.4-0.4-0.6-0.5-0.2-0.2-0.5-0.4-0.7-0.6-0.2-0.1-0.3-0.3-0.5-0.4-0.3-0.2-0.6-0.4-0.8-0.6-0.1-0.1-0.3-0.2-0.4-0.3l-0.9-0.6c-0.1-0.1-0.3-0.2-0.4-0.3-0.3-0.2-0.6-0.3-0.9-0.5-0.2-0.1-0.3-0.2-0.5-0.3-0.3-0.1-0.6-0.3-0.8-0.4l-0.6-0.3c-0.3-0.1-0.5-0.2-0.8-0.4-0.2-0.1-0.5-0.2-0.7-0.3-0.2-0.1-0.5-0.2-0.7-0.3-0.3-0.1-0.5-0.2-0.8-0.3-0.2-0.1-0.4-0.1-0.6-0.2l-0.9-0.3c-0.2-0.1-0.4-0.1-0.5-0.2-0.3-0.1-0.6-0.2-1-0.3-0.2 0-0.3-0.1-0.5-0.1-0.3-0.1-0.7-0.2-1-0.2-0.2 0-0.4-0.1-0.5-0.1-0.3-0.1-0.7-0.1-1-0.2-0.2 0-0.4-0.1-0.6-0.1-0.3 0-0.6-0.1-0.9-0.1-0.3 0-0.5 0-0.8-0.1-0.2 0-0.5 0-0.7-0.1H758c-0.3 0-0.5 0-0.7 0.1-0.3 0-0.5 0-0.8 0.1-0.3 0-0.6 0.1-0.9 0.1-0.2 0-0.4 0-0.6 0.1-0.3 0-0.7 0.1-1 0.2-0.2 0-0.4 0.1-0.5 0.1-0.3 0.1-0.7 0.1-1 0.2-0.2 0-0.3 0.1-0.5 0.1-0.3 0.1-0.6 0.2-1 0.3-0.2 0.1-0.4 0.1-0.5 0.2l-0.9 0.3c-0.2 0.1-0.4 0.1-0.6 0.2-0.3 0.1-0.5 0.2-0.8 0.3-0.2 0.1-0.5 0.2-0.7 0.3-0.2 0.1-0.5 0.2-0.7 0.3-0.3 0.1-0.5 0.2-0.8 0.3l-0.6 0.3c-0.3 0.1-0.6 0.3-0.8 0.4-0.2 0.1-0.3 0.2-0.5 0.3-0.3 0.2-0.6 0.3-0.9 0.5-0.1 0.1-0.3 0.2-0.4 0.3l-0.9 0.6c-0.1 0.1-0.3 0.2-0.4 0.3-0.3 0.2-0.6 0.4-0.8 0.6-0.2 0.1-0.3 0.3-0.5 0.4-0.2 0.2-0.5 0.4-0.7 0.6-0.2 0.2-0.4 0.4-0.6 0.5-0.2 0.2-0.4 0.3-0.6 0.5-0.8 0.7-1.5 1.5-2.2 2.2-0.2 0.2-0.3 0.4-0.5 0.6-0.2 0.2-0.4 0.4-0.5 0.6-0.2 0.2-0.4 0.5-0.6 0.7-0.1 0.2-0.3 0.3-0.4 0.5-0.2 0.3-0.4 0.6-0.6 0.8-0.1 0.1-0.2 0.3-0.3 0.4l-0.6 0.9c-0.1 0.1-0.2 0.3-0.3 0.4-0.2 0.3-0.3 0.6-0.5 0.9-0.1 0.2-0.2 0.3-0.3 0.5-0.1 0.3-0.3 0.6-0.4 0.8l-0.3 0.6c-0.1 0.3-0.2 0.5-0.3 0.8-0.1 0.2-0.2 0.5-0.3 0.7-0.1 0.2-0.2 0.5-0.3 0.7-0.1 0.3-0.2 0.5-0.3 0.8-0.1 0.2-0.1 0.4-0.2 0.6l-0.3 0.9c-0.1 0.2-0.1 0.4-0.2 0.5-0.1 0.3-0.2 0.6-0.3 1 0 0.2-0.1 0.3-0.1 0.5-0.1 0.3-0.2 0.7-0.2 1 0 0.2-0.1 0.4-0.1 0.5-0.1 0.3-0.1 0.7-0.2 1 0 0.2-0.1 0.4-0.1 0.6 0 0.3-0.1 0.6-0.1 0.9 0 0.3 0 0.5-0.1 0.8 0 0.2 0 0.5-0.1 0.7v833.6c-0.2 18 14.1 32.3 31.8 32.3zM96.5 874.2h466c17.7 0 32-14.3 32-32s-14.3-32-32-32h-466c-17.7 0-32 14.3-32 32s14.3 32 32 32zM96.5 544h466c17.7 0 32-14.3 32-32s-14.3-32-32-32h-466c-17.7 0-32 14.3-32 32s14.3 32 32 32zM96.5 213.8h466c17.7 0 32-14.3 32-32s-14.3-32-32-32h-466c-17.7 0-32 14.3-32 32s14.3 32 32 32z" p-id="3764"></path></svg>