<?xml version="1.0" standalone="no"?><!DOCTYPE svg PUBLIC "-//W3C//DTD SVG 1.1//EN" "http://www.w3.org/Graphics/SVG/1.1/DTD/svg11.dtd"><svg t="1639383498065" class="icon" viewBox="0 0 1024 1024" version="1.1" xmlns="http://www.w3.org/2000/svg" p-id="6728" xmlns:xlink="http://www.w3.org/1999/xlink" width="200" height="200"><defs><style type="text/css"></style></defs><path d="M939.264 567.552c-23.552-18.944-57.664-14.848-76.224 9.28L739.456 736 739.456 120c0-30.72-29.44-56-59.456-56-30.016 0-54.272 24.832-54.272 55.552l0 784.832c0 23.68 14.656 44.736 36.48 52.48C668.032 958.976 674.048 960 680 960c16.32 0 32.192-7.616 42.688-21.184l225.664-293.248C966.912 621.376 962.816 586.496 939.264 567.552zM361.792 67.072C355.968 65.024 349.952 64 344 64 327.68 64 311.808 71.616 301.312 85.184L75.648 378.496c-18.56 24.128-14.464 59.008 9.088 78.016 23.552 18.944 57.664 14.848 76.224-9.28L284.544 288l0 616c0 30.72 29.44 56 59.456 56 30.016 0 54.272-24.832 54.272-55.552L398.272 119.616C398.272 95.872 383.616 74.816 361.792 67.072z" p-id="6729"></path></svg>