<?xml version="1.0" standalone="no"?><!DOCTYPE svg PUBLIC "-//W3C//DTD SVG 1.1//EN" "http://www.w3.org/Graphics/SVG/1.1/DTD/svg11.dtd"><svg t="1639059612672" class="icon" viewBox="0 0 1024 1024" version="1.1" xmlns="http://www.w3.org/2000/svg" p-id="3472" xmlns:xlink="http://www.w3.org/1999/xlink" width="200" height="200"><defs><style type="text/css"></style></defs><path d="M829.952 271.36h-126.976v-51.2a76.288 76.288 0 0 0-75.776-76.288h-256a76.288 76.288 0 0 0-75.776 76.8v51.2H168.448a25.6 25.6 0 0 0 0 51.2h661.504a25.6 25.6 0 0 0 0-51.712z m-178.176 0h-307.2v-51.2a26.112 26.112 0 0 1 25.6-25.6h256a24.576 24.576 0 0 1 24.576 25.6zM448.512 677.376V398.336a25.6 25.6 0 0 0-51.2 0v279.04a25.6 25.6 0 0 0 51.2 0zM601.088 677.376V398.336a25.6 25.6 0 0 0-51.2 0v279.04a25.6 25.6 0 0 0 51.2 0z" fill="" p-id="3473"></path><path d="M735.744 346.624a25.6 25.6 0 0 0-25.6 25.6v381.44a102.4 102.4 0 0 1-102.4 102.4H390.656a102.4 102.4 0 0 1-102.4-102.4V372.224a25.6 25.6 0 0 0-51.2 0v381.44a153.6 153.6 0 0 0 153.6 153.6h217.6a153.6 153.6 0 0 0 153.6-153.6V372.224a25.6 25.6 0 0 0-26.112-25.6z" fill="" p-id="3474"></path></svg>