<?xml version="1.0" standalone="no"?><!DOCTYPE svg PUBLIC "-//W3C//DTD SVG 1.1//EN" "http://www.w3.org/Graphics/SVG/1.1/DTD/svg11.dtd"><svg t="1639378514208" class="icon" viewBox="0 0 1024 1024" version="1.1" xmlns="http://www.w3.org/2000/svg" p-id="16085" xmlns:xlink="http://www.w3.org/1999/xlink" width="200" height="200"><defs><style type="text/css"></style></defs><path d="M840.533333 1024h-657.066666c-29.866667 0-55.466667-25.6-55.466667-59.733333v-153.6c0-55.466667 81.066667-59.733333 85.333333 0v128h597.333334v-128c0-59.733333 85.333333-59.733333 85.333333 0v153.6c0 34.133333-25.6 59.733333-55.466667 59.733333z" p-id="16086"></path><path d="M755.2 477.866667c-17.066667-17.066667-42.666667-17.066667-59.733333 0l-140.8 140.8v-576c0-21.333333-21.333333-42.666667-42.666667-42.666667s-42.666667 21.333333-42.666667 42.666667v576l-140.8-140.8c-17.066667-17.066667-42.666667-17.066667-59.733333 0-17.066667 17.066667-17.066667 42.666667 0 59.733333l213.333333 213.333333c17.066667 17.066667 42.666667 17.066667 59.733334 0l213.333333-213.333333c17.066667-12.8 17.066667-42.666667 0-59.733333z" p-id="16087"></path></svg>