<?xml version="1.0" standalone="no"?><!DOCTYPE svg PUBLIC "-//W3C//DTD SVG 1.1//EN" "http://www.w3.org/Graphics/SVG/1.1/DTD/svg11.dtd"><svg t="1639450238166" class="icon" viewBox="0 0 1024 1024" version="1.1" xmlns="http://www.w3.org/2000/svg" p-id="2635" xmlns:xlink="http://www.w3.org/1999/xlink" width="200" height="200"><defs><style type="text/css"></style></defs><path d="M726 571c-23.5 24-36.6 65.9-31 99.7l31.5 192-164.6-90.4c-29.3-16-71.7-16.1-100.9 0l-164.6 90.4 31.5-192c5.5-33.8-7.5-75.7-31-99.7L163.2 434.8l184.5-28c32.6-5 66.9-31 81.5-61.8l82.3-174.2L593.7 345c14.6 30.8 48.9 56.8 81.5 61.8l184.5 28L726 571z m213.1-108.4c17.5-17.8 23.8-39.9 17.3-60.6-6.5-20.6-24.1-34.5-48.3-38.2L686 330.1c-8.1-1.2-21.5-11.5-25.2-19.2l-99.3-210.4c-10.8-22.9-29.1-36-50.1-36-20.9 0-39.2 13.2-50 36l-99.3 210.4c-3.7 7.8-17.1 18-25.3 19.2l-222.1 33.7C90.5 367.5 73 381.4 66.5 402s-0.2 42.7 17.3 60.6l160.7 163.7c6 6.1 11.2 22.8 9.7 31.4l-38 231.2c-4.1 25.2 3.2 47 20.2 59.7 8.8 6.6 19 9.9 29.7 9.9 10 0 20.6-2.9 31-8.6l198.7-109.2c7.1-3.9 23.9-3.9 31 0l198.6 109.2c21.6 11.9 43.8 11.4 60.7-1.3 17-12.8 24.4-34.5 20.3-59.7l-38-231.2c-1.4-8.6 3.8-25.3 9.7-31.4l161-163.7z m0 0" p-id="2636"></path></svg>