<?xml version="1.0" standalone="no"?><!DOCTYPE svg PUBLIC "-//W3C//DTD SVG 1.1//EN" "http://www.w3.org/Graphics/SVG/1.1/DTD/svg11.dtd"><svg t="1639377481576" class="icon" viewBox="0 0 1024 1024" version="1.1" xmlns="http://www.w3.org/2000/svg" p-id="7699" xmlns:xlink="http://www.w3.org/1999/xlink" width="200" height="200"><defs><style type="text/css"></style></defs><path d="M847.36 322.56H829.44v-46.08c0-50.816-39.34208-92.16-90.15296-92.16h-260.6592l-3.13856-10.24h-0.38912c-13.10208-40.96-50.26304-66.56-92.47744-66.56H176.64C122.99776 107.52 76.8 148.59776 76.8 202.24v619.52c0 53.64224 46.19776 99.84 99.84 99.84h552.96c118.57408 0 212.48-99.02592 212.48-217.6V419.84c0-53.64224-41.07776-97.28-94.72-97.28z m-108.07296-76.8C756.224 245.76 768 259.53792 768 276.48v46.08h-249.87648L496.1792 245.76h243.10784zM870.4 704c0 79.04768-61.75232 145.92-140.8 145.92h-552.96c-14.11584 0-28.16-14.04416-28.16-28.16v-619.52c0-14.11584 14.04416-23.04 28.16-23.04h205.9776c10.93632 0 20.58752 5.59616 24.17152 15.88224l46.81728 163.20512 0.384 0.94208C460.8768 380.3648 480.44032 394.24 502.66624 394.24H847.36c14.11584 0 23.04 11.48416 23.04 25.6v284.16z" fill="#363636" p-id="7700"></path><path d="M435.2 476.16H363.52v107.52H256v71.68h107.52v107.52h71.68v-107.52h107.52v-71.68H435.2z" fill="#363636" p-id="7701"></path></svg>