<?xml version="1.0" standalone="no"?><!DOCTYPE svg PUBLIC "-//W3C//DTD SVG 1.1//EN" "http://www.w3.org/Graphics/SVG/1.1/DTD/svg11.dtd"><svg t="1640228144253" class="icon" viewBox="0 0 1024 1024" version="1.1" xmlns="http://www.w3.org/2000/svg" p-id="2131" xmlns:xlink="http://www.w3.org/1999/xlink" width="200" height="200"><defs><style type="text/css"></style></defs><path d="M525.5 112.1L647 359c2 4.1 5.9 6.9 10.5 7.6l271.9 39.6c11.4 1.7 15.9 15.6 7.7 23.7L740.3 622.1c-3.3 3.2-4.8 7.8-4 12.3l46.5 271.5c1.9 11.3-10 20-20.2 14.6L519.5 792.4c-4.1-2.1-8.9-2.1-12.9 0L263.4 920.5c-10.2 5.4-22.1-3.3-20.2-14.6l46.5-271.5c0.8-4.5-0.7-9.1-4-12.3L88.9 429.9c-8.2-8-3.7-22 7.7-23.7l271.9-39.6c4.5-0.7 8.4-3.5 10.5-7.6l121.6-246.9c5-10.4 19.8-10.4 24.9 0z" fill="#4F4F4F" p-id="2132"></path><path d="M769.1 942.9c-5.5 0-11.1-1.3-16.2-4L513 812.5 273.1 938.9c-11.8 6.2-25.8 5.2-36.6-2.6-10.8-7.8-16.1-20.8-13.8-33.9l45.8-267.9L74.3 444.8c-9.5-9.3-12.9-22.9-8.8-35.6 4.1-12.6 14.8-21.7 28-23.6l268.3-39.1 120-243.6c5.9-12 17.8-19.4 31.1-19.4s25.2 7.4 31.1 19.4l120 243.6 268.3 39.1c13.2 1.9 23.9 11 28 23.6 4.1 12.6 0.8 26.3-8.7 35.6L757.5 634.5l45.8 267.9c2.2 13.1-3.1 26.1-13.8 33.9-6.1 4.4-13.2 6.6-20.4 6.6zM113.4 424.8l186.8 182.4c8.2 8 11.9 19.4 10 30.7l-44.1 257.6 230.7-121.6c10.1-5.3 22.2-5.3 32.3 0l230.7 121.6-44.1-257.6c-1.9-11.3 1.8-22.7 10-30.7l186.8-182.4-258.1-37.6c-11.3-1.7-21.1-8.8-26.1-19L513 133.9 397.6 368.2c-5 10.2-14.8 17.4-26.1 19l-258.1 37.6z" fill="#4F4F4F" p-id="2133"></path></svg>